<svg xmlns="http://www.w3.org/2000/svg" width="1600" height="1274" viewBox="0 0 1600 1274" role="img" aria-labelledby="title desc"><title id="title">A Talent for War: quality scores</title><desc id="desc">Mean overall score on a zero to one hundred axis, with recap and craft alongside. Full values are in results.md.</desc><rect width="1600" height="1274" fill="#F7F2E8"/><g fill="#173D6D" font-family="Georgia, serif"><text x="48" y="64" font-size="44">A Talent for War</text></g><g fill="#252422" font-family="Arial, sans-serif"><text x="48" y="106" font-size="25">18 configurations · Overall = equal-weight recap and craft · JJFYI</text><text x="1060" y="156" font-size="25">Overall</text><text x="1240" y="156" font-size="25">Recap</text><text x="1400" y="156" font-size="25">Craft</text><line x1="440" y1="172" x2="440" y2="1209" stroke="#252422" stroke-opacity=".15"/><text x="440" y="1246" text-anchor="middle" font-size="22">0</text><line x1="554" y1="172" x2="554" y2="1209" stroke="#252422" stroke-opacity=".15"/><text x="554" y="1246" text-anchor="middle" font-size="22">20</text><line x1="668" y1="172" x2="668" y2="1209" stroke="#252422" stroke-opacity=".15"/><text x="668" y="1246" text-anchor="middle" font-size="22">40</text><line x1="782" y1="172" x2="782" y2="1209" stroke="#252422" stroke-opacity=".15"/><text x="782" y="1246" text-anchor="middle" font-size="22">60</text><line x1="896" y1="172" x2="896" y2="1209" stroke="#252422" stroke-opacity=".15"/><text x="896" y="1246" text-anchor="middle" font-size="22">80</text><line x1="1010" y1="172" x2="1010" y2="1209" stroke="#252422" stroke-opacity=".15"/><text x="1010" y="1246" text-anchor="middle" font-size="22">100</text><text x="48" y="208" font-size="25">gpt-6-astra-medium</text><rect x="440" y="182" width="504.64380000000006" height="32" fill="#173D6D"/><text x="1060" y="208" font-size="27">88.53</text><text x="1240" y="208" font-size="27">92.52</text><text x="1400" y="208" font-size="27">84.55</text><text x="48" y="266" font-size="25">gpt-5.6-sol-low</text><rect x="440" y="240" width="493.03432499999997" height="32" fill="#173D6D"/><text x="1060" y="266" font-size="27">86.50</text><text x="1240" y="266" font-size="27">90.88</text><text x="1400" y="266" font-size="27">82.11</text><text x="48" y="324" font-size="25">gpt-5.6-sol-high</text><rect x="440" y="298" width="493.0063" height="32" fill="#173D6D"/><text x="1060" y="324" font-size="27">86.49</text><text x="1240" y="324" font-size="27">91.33</text><text x="1400" y="324" font-size="27">81.66</text><text x="48" y="382" font-size="25">gpt-5.6-sol-medium</text><rect x="440" y="356" width="492.77925" height="32" fill="#173D6D"/><text x="1060" y="382" font-size="27">86.45</text><text x="1240" y="382" font-size="27">91.05</text><text x="1400" y="382" font-size="27">81.85</text><text x="48" y="440" font-size="25">claude-opus-5-medium</text><rect x="440" y="414" width="487.44975" height="32" fill="#173D6D"/><text x="1060" y="440" font-size="27">85.52</text><text x="1240" y="440" font-size="27">90.40</text><text x="1400" y="440" font-size="27">80.64</text><text x="48" y="498" font-size="25">kimi-k3</text><rect x="440" y="472" width="480.9959250000001" height="32" fill="#173D6D"/><text x="1060" y="498" font-size="27">84.39</text><text x="1240" y="498" font-size="27">90.44</text><text x="1400" y="498" font-size="27">78.33</text><text x="48" y="556" font-size="25">gpt-5.5-medium</text><rect x="440" y="530" width="480.96029999999996" height="32" fill="#173D6D"/><text x="1060" y="556" font-size="27">84.38</text><text x="1240" y="556" font-size="27">90.22</text><text x="1400" y="556" font-size="27">78.53</text><text x="48" y="614" font-size="25">claude-fable-5-medium</text><rect x="440" y="588" width="479.61795" height="32" fill="#173D6D"/><text x="1060" y="614" font-size="27">84.14</text><text x="1240" y="614" font-size="27">90.54</text><text x="1400" y="614" font-size="27">77.75</text><text x="48" y="672" font-size="25">gpt-5.4-high</text><rect x="440" y="646" width="463.93820000000005" height="32" fill="#173D6D"/><text x="1060" y="672" font-size="27">81.39</text><text x="1240" y="672" font-size="27">90.81</text><text x="1400" y="672" font-size="27">71.97</text><text x="48" y="730" font-size="25">gpt-5.4-medium</text><rect x="440" y="704" width="463.03285000000005" height="32" fill="#173D6D"/><text x="1060" y="730" font-size="27">81.23</text><text x="1240" y="730" font-size="27">89.96</text><text x="1400" y="730" font-size="27">72.51</text><text x="48" y="788" font-size="25">gpt-5.6-terra-high</text><rect x="440" y="762" width="460.67685" height="32" fill="#173D6D"/><text x="1060" y="788" font-size="27">80.82</text><text x="1240" y="788" font-size="27">90.68</text><text x="1400" y="788" font-size="27">70.96</text><text x="48" y="846" font-size="25">gpt-5.6-terra-medium</text><rect x="440" y="820" width="458.79965000000004" height="32" fill="#173D6D"/><text x="1060" y="846" font-size="27">80.49</text><text x="1240" y="846" font-size="27">90.08</text><text x="1400" y="846" font-size="27">70.90</text><text x="48" y="904" font-size="25">claude-sonnet-4-6-medium</text><rect x="440" y="878" width="452.01142500000003" height="32" fill="#173D6D"/><text x="1060" y="904" font-size="27">79.30</text><text x="1240" y="904" font-size="27">87.81</text><text x="1400" y="904" font-size="27">70.80</text><text x="48" y="962" font-size="25">claude-opus-4-8-medium</text><rect x="440" y="936" width="447.89032499999996" height="32" fill="#173D6D"/><text x="1060" y="962" font-size="27">78.58</text><text x="1240" y="962" font-size="27">89.15</text><text x="1400" y="962" font-size="27">68.01</text><text x="48" y="1020" font-size="25">gpt-5.6-luna-high</text><rect x="440" y="994" width="444.89354999999995" height="32" fill="#173D6D"/><text x="1060" y="1020" font-size="27">78.05</text><text x="1240" y="1020" font-size="27">89.48</text><text x="1400" y="1020" font-size="27">66.62</text><text x="48" y="1078" font-size="25">claude-sonnet-5-high</text><rect x="440" y="1052" width="441.586125" height="32" fill="#173D6D"/><text x="1060" y="1078" font-size="27">77.47</text><text x="1240" y="1078" font-size="27">87.81</text><text x="1400" y="1078" font-size="27">67.14</text><text x="48" y="1136" font-size="25">claude-haiku-4-5</text><rect x="440" y="1110" width="428.86800000000005" height="32" fill="#173D6D"/><text x="1060" y="1136" font-size="27">75.24</text><text x="1240" y="1136" font-size="27">85.70</text><text x="1400" y="1136" font-size="27">64.78</text><text x="48" y="1194" font-size="25">claude-sonnet-5-medium</text><rect x="440" y="1168" width="425.660325" height="32" fill="#173D6D"/><text x="1060" y="1194" font-size="27">74.68</text><text x="1240" y="1194" font-size="27">85.17</text><text x="1400" y="1194" font-size="27">64.18</text></g></svg>
